<?xml version="1.0" encoding="UTF-8"?>
<svg width="652px" height="275px" viewBox="0 0 652 275" version="1.1" xmlns="http://www.w3.org/2000/svg" xmlns:xlink="http://www.w3.org/1999/xlink">
    <!-- Generator: Sketch 55.1 (78136) - https://sketchapp.com -->
    <title>logo-udica-3</title>
    <desc>Created with Sketch.</desc>
    <g id="logo-udica-3" stroke="none" stroke-width="1" fill="none" fill-rule="evenodd">
        <rect fill="#FFFFFF" x="0" y="0" width="652" height="275"></rect>
        <polygon id="Polygon" stroke="#01216A" stroke-width="6.6" stroke-linecap="round" transform="translate(148.605469, 137.500000) rotate(180.000000) translate(-148.605469, -137.500000) " points="148.605469 17.6 242.347063 62.7435728 265.499325 164.18026 200.628129 245.526167 96.5828084 245.526167 31.7116121 164.18026 54.863874 62.7435728"></polygon>
        <path d="M315.783548,116.446406 L315.783548,162.083922 C315.783548,167.818059 317.088687,172.097202 319.699003,174.921479 C322.309319,177.745756 326.395901,179.157873 331.95887,179.157873 C339.319106,179.157873 344.700128,177.146676 348.102098,173.124221 C351.504068,169.101766 353.205027,162.533282 353.205027,153.418571 L353.205027,116.446406 L363.860199,116.446406 L363.860199,186.796219 L355.066473,186.796219 L353.525966,177.360615 L352.948276,177.360615 C350.76588,180.826773 347.738387,183.479841 343.865704,185.3199 C339.993022,187.159959 335.574807,188.079975 330.610926,188.079975 C322.052512,188.079975 315.644496,186.047382 311.386685,181.982135 C307.128874,177.916889 305,171.412591 305,162.469049 L305,116.446406 L315.783548,116.446406 Z M434.338388,177.360615 L433.760698,177.360615 C428.83961,184.506891 421.479484,188.079975 411.6801,188.079975 C402.479804,188.079975 395.322938,184.934805 390.209285,178.644371 C385.095633,172.353936 382.538845,163.410527 382.538845,151.813876 C382.538845,140.217225 385.106331,131.209629 390.241379,124.790818 C395.376428,118.372008 402.522597,115.162651 411.6801,115.162651 C421.222732,115.162651 428.540066,118.628756 433.632322,125.561072 L434.466764,125.561072 L434.017449,120.490237 L433.760698,115.547777 L433.760698,86.9200249 L444.41587,86.9200249 L444.41587,186.796219 L435.750519,186.796219 L434.338388,177.360615 Z M413.028043,179.157873 C420.302695,179.157873 425.576739,177.178769 428.850332,173.220503 C432.123926,169.262236 433.760698,162.875615 433.760698,154.060449 L433.760698,151.813876 C433.760698,141.843324 432.10253,134.729249 428.786145,130.471437 C425.469759,126.213626 420.17432,124.084753 412.899668,124.084753 C406.652025,124.084753 401.870083,126.513166 398.553698,131.370066 C395.237312,136.226967 393.579144,143.084293 393.579144,151.942252 C393.579144,160.928587 395.226614,167.711028 398.521604,172.28978 C401.816593,176.868531 406.652025,179.157873 413.028043,179.157873 Z M477.665143,186.796219 L467.009971,186.796219 L467.009971,116.446406 L477.665143,116.446406 L477.665143,186.796219 Z M466.111342,97.382634 C466.111342,94.9434859 466.710422,93.1569438 467.9086,92.0229539 C469.106778,90.888964 470.604478,90.3219776 472.401745,90.3219776 C474.113428,90.3219776 475.589732,90.8996619 476.830702,92.0550478 C478.071672,93.2104337 478.692148,94.986278 478.692148,97.382634 C478.692148,99.77899 478.071672,101.565532 476.830702,102.742314 C475.589732,103.919096 474.113428,104.507478 472.401745,104.507478 C470.604478,104.507478 469.106778,103.919096 467.9086,102.742314 C466.710422,101.565532 466.111342,99.77899 466.111342,97.382634 Z M528.373494,188.079975 C518.188981,188.079975 510.30466,184.945503 504.720295,178.676464 C499.13593,172.407426 496.343789,163.538902 496.343789,152.070627 C496.343789,140.302808 499.178721,131.209629 504.848671,124.790818 C510.51862,118.372008 518.595502,115.162651 529.07956,115.162651 C532.460133,115.162651 535.840656,115.526378 539.22123,116.253843 C542.601803,116.981308 545.254872,117.837137 547.180515,118.821354 L543.906938,127.871832 C541.553374,126.930407 538.985888,126.149463 536.204404,125.528978 C533.422919,124.908493 530.962412,124.598255 528.822808,124.598255 C514.530257,124.598255 507.384088,133.71283 507.384088,151.942252 C507.384088,160.58625 509.127839,167.218922 512.615393,171.840465 C516.102946,176.462009 521.270011,178.772746 528.116743,178.772746 C533.979257,178.772746 539.991452,177.510399 546.153511,174.985667 L546.153511,184.421271 C541.446383,186.860419 535.51977,188.079975 528.373494,188.079975 Z M606.104902,186.796219 L603.986705,176.782925 L603.473203,176.782925 C599.964253,181.190508 596.466054,184.17521 592.9785,185.737121 C589.490946,187.299031 585.136919,188.079975 579.916286,188.079975 C572.941178,188.079975 567.474573,186.282735 563.516307,182.688201 C559.55804,179.093667 557.578936,173.980091 557.578936,167.34732 C557.578936,153.140353 568.940061,145.694644 591.662651,145.009971 L603.601579,144.624844 L603.601579,140.260075 C603.601579,134.739898 602.414117,130.664014 600.039157,128.032302 C597.664197,125.400589 593.866457,124.084753 588.645825,124.084753 C582.783311,124.084753 576.150639,125.881993 568.747611,129.476527 L565.474034,121.324678 C568.940192,119.441827 572.737931,117.965523 576.867366,116.895721 C580.996801,115.825919 585.136872,115.291026 589.287703,115.291026 C597.674948,115.291026 603.890404,117.152453 607.934254,120.875364 C611.978105,124.598274 614,130.567678 614,138.783756 L614,186.796219 L606.104902,186.796219 Z M582.034483,179.286248 C588.667254,179.286248 593.87711,177.467613 597.664209,173.830287 C601.451307,170.192961 603.344828,165.100781 603.344828,158.553594 L603.344828,152.199003 L592.689655,152.648317 C584.216825,152.947862 578.108349,154.263698 574.364042,156.595866 C570.619736,158.928034 568.747611,162.554608 568.747611,167.475696 C568.747611,171.326982 569.913678,174.258195 572.245845,176.269423 C574.578013,178.28065 577.84086,179.286248 582.034483,179.286248 Z" id="udica" fill="#000000" fill-rule="nonzero"></path>
        <path d="M43.0054687,113.3 L62.8054688,117.7" id="Line" stroke-opacity="0.417231206" stroke="#01216A" stroke-width="4.4" stroke-linecap="round"></path>
        <path d="M95.3055881,45.2707648 L115.105588,49.6707648" id="Line-Copy" stroke-opacity="0.417231206" stroke="#01216A" stroke-width="4.4" stroke-linecap="round" transform="translate(105.205588, 47.470765) rotate(51.871192) translate(-105.205588, -47.470765) "></path>
        <path d="M181.5041,45.2707648 L201.3041,49.6707648" id="Line-Copy-2" stroke-opacity="0.417231206" stroke="#01216A" stroke-width="4.4" stroke-linecap="round" transform="translate(191.404100, 47.470765) rotate(102.871192) translate(-191.404100, -47.470765) "></path>
        <path d="M234.480183,113.484693 L254.280183,117.884693" id="Line-Copy-3" stroke-opacity="0.417231206" stroke="#01216A" stroke-width="4.4" stroke-linecap="round" transform="translate(244.380183, 115.684693) rotate(153.871192) translate(-244.380183, -115.684693) "></path>
        <g id="Group-4" transform="translate(80.015290, 75.457344)" fill-rule="nonzero">
            <g id="fishing-rod-with-hanging-hook-copy-4" transform="translate(19.738028, 0.000000)" fill="#000000">
                <path d="M127.44731,94.2517711 C110.782972,75.5810515 91.8027695,59.5540742 72.3033513,44.6817914 C51.9488762,29.1574815 30.6383857,13.5148969 8.27023436,1.74884076 C6.45092051,0.792028927 4.96195395,2.2029852 4.84382561,3.83153656 C4.44067829,3.98468711 4.11307818,4.37287068 4.09110081,4.9976036 C4.06225552,5.83007538 4.06294231,6.67240339 4.03890457,7.50639152 C0.456593868,22.9154594 0.83158268,38.9265151 2.3713719,54.6843417 C3.9324517,70.6544561 11.176741,87.3016173 10.4308842,83.243886 C7.96461161,63.2205892 7.49690579,43.2973711 6.96601503,23.1429107 C7.2798793,23.4583099 7.56283789,23.7903888 7.93164556,24.0747029 C11.8154583,27.0596222 16.9251959,26.5478568 20.8048878,23.8935 C20.830986,24.4158799 20.90722,24.9481159 21.012986,25.4841428 C21.3241031,27.9603294 22.311711,30.3470518 24.117289,32.3599959 C25.1090177,33.4654092 26.2401652,34.2584561 27.4399921,34.7656725 C30.4708082,36.1523673 33.9487264,35.742955 36.6560633,33.8831615 C36.375165,37.7771278 37.3586522,41.4588063 39.9691512,44.5013467 C43.2856731,48.8062417 48.9029506,51.3999448 53.5326202,49.7122561 C53.4969069,50.1671587 53.486605,50.6394993 53.5250654,51.1467157 C53.7290429,53.8367065 55.5854435,56.0255462 57.575082,57.3591691 C59.1869844,58.4395628 61.2501097,58.8762693 63.3558161,58.7655763 C64.5027599,59.0400342 65.6737414,59.1962174 66.8618928,59.1204003 C67.4765722,59.0809755 68.1530631,58.941472 68.8405425,58.7473802 C68.7574406,61.9059207 69.7890033,64.9378466 72.2195626,67.3632357 C72.9242119,68.0660603 73.8088009,68.636963 74.7531409,69.1426631 C76.2840018,70.3299589 78.0195269,71.0850973 79.8539502,71.474039 C79.1939424,72.8410214 78.7743121,74.3581216 78.7021989,75.9464899 C78.5785762,78.6592258 79.6774445,80.9807455 81.3813772,82.5766955 C83.1127815,84.7101888 85.6230088,86.1893804 88.0611229,86.5040214 C90.8955164,86.8687017 93.0850115,84.7875222 94.3349742,82.193061 C95.0361895,82.9125653 95.7902879,83.5228929 96.7153977,83.421298 C97.5944923,83.3242521 98.1796397,82.7230225 98.2462586,81.732093 C98.3623265,79.9814761 96.7545448,78.8881935 95.4599406,78.0208458 C95.6137822,76.2141243 95.4077444,74.3694942 94.8747932,72.652995 C104.478215,81.1429941 113.758845,90.0727324 122.689897,99.5013473 C125.825106,102.810006 130.497357,97.6688479 127.44731,94.2517711 Z M11.4500845,19.9009714 C7.7304153,17.8614914 7.91378895,12.9462686 8.95015913,9.17209326 C9.00647613,8.96814525 9.0188384,8.78239335 9.01128368,8.60649768 C12.9431719,11.6475217 16.9334374,14.5998396 20.9669709,17.4861967 C18.1923284,19.7645006 14.8861084,21.7850264 11.4500845,19.9009714 Z M31.9941144,30.1832869 C30.5106422,30.7064249 29.0422794,30.0308945 27.8087998,29.1552069 C26.4791691,28.211284 25.4963687,26.4712815 24.985395,24.8647171 C24.4819759,23.2824142 24.7161722,21.6250523 24.534859,20.0093899 C28.0986263,22.5159033 31.693986,24.9761683 35.2865986,27.4402241 C34.3463794,28.5668662 33.4480546,29.6707632 31.9941144,30.1832869 Z M52.3025744,42.3511736 C50.1906869,43.2533971 47.8363615,43.1275408 45.7959004,42.0767157 C42.3344653,40.2942556 40.6813552,36.0075567 40.4643287,31.8315507 C40.5467439,31.6124392 40.6016873,31.3865043 40.6971515,31.1704255 C45.3824512,34.3759726 50.0340982,37.6338335 54.6678885,40.9189886 C53.9412618,41.4474338 53.1899106,41.9720881 52.3025744,42.3511736 Z M66.7368965,53.5258564 C65.055628,53.9163144 63.21365,53.382562 61.7205627,52.5409922 C59.0530598,51.0375391 58.0166897,48.6318624 58.2083048,46.0176887 C58.7852107,45.5741587 59.3250297,45.0957527 59.754962,44.5392552 C61.6244117,45.8827343 63.4972954,47.2201479 65.340647,48.6045682 C66.7753569,49.6826874 68.1750404,50.8070551 69.5973881,51.9010959 C68.7732369,52.5842079 67.9401573,53.2453331 66.7368965,53.5258564 Z M88.0831003,69.2579051 C88.6655005,70.8113975 89.46218,72.2049159 89.6043461,74.0480296 C89.6325046,74.4127099 89.6297574,74.8092334 89.6201423,75.2049986 C88.2321343,74.9654166 87.2891679,77.3248448 88.7025873,77.9988589 C88.7870628,78.0398001 88.8639836,78.0913557 88.9470855,78.1338133 C88.6915986,78.5970558 88.3708664,79.0072263 87.91827,79.2862333 C85.9828882,80.4750454 83.6285629,77.9192509 83.518676,75.9480062 C83.4486232,74.6811025 83.6862534,73.4051006 84.1457178,72.2344846 C84.3476348,71.9448632 84.5426839,71.6499347 84.7720727,71.380784 C86.0673637,70.9789533 87.2823,70.2730961 88.0831003,69.2579051 Z M74.5766351,55.8003694 C78.241361,58.6836938 81.8696868,61.6132667 85.4561182,64.6012187 C84.3167291,64.9651408 83.2364042,65.6588673 82.0029245,65.7111811 C80.3168485,65.7839655 78.648629,64.8506569 77.3986663,63.6701847 C75.3678203,61.7504956 74.1473897,58.6738376 74.5766351,55.8003694 Z" id="Shape"></path>
            </g>
            <g id="fishing-rod-with-hanging-hook-copy-5" transform="translate(0.000000, 71.809859)" fill="#01216A">
                <path d="M29.6361616,20.9451316 C29.1666524,24.1303732 28.7656431,26.7176685 26.3453161,29.6346191 C23.6195941,32.9197563 19.1770954,35.6725928 14.7973881,34.5965748 C10.0994422,33.4420674 10.0951609,27.7023534 10.0951609,23.3882918 C11.2339704,23.2769796 12.3713529,23.1513966 13.5130165,23.1214279 C15.7078649,23.0671989 17.7214742,21.2819223 17.645839,18.9886055 C17.484579,14.0637538 15.4652614,9.82532749 13.2019132,5.54551584 C12.0274267,3.32355293 8.54963375,2.82122092 6.85569029,4.72779924 C4.52669642,7.34934442 2.82419048,10.4660862 0.724956426,13.2660164 C-0.706404391,15.1740218 0.164114151,17.0449231 1.74531832,18.0453059 C0.602227582,20.2629875 2.15346308,22.315128 4.36829059,23.1513966 C2.54162873,28.6513613 3.48635541,35.0147091 7.27667877,39.4457912 C11.8518959,44.7916313 19.9134684,44.3092784 25.6902866,41.6349313 C32.0436448,38.6922932 37.1411731,31.7880822 38.0088375,24.9138399 C38.46693,21.2876307 38.2956805,17.8869 37.6734738,14.2863783 C37.2239437,11.6776768 36.1222383,9.78536926 35.3245008,7.33507363 C35.1204284,6.70715861 34.4796697,6.5544611 34.0073063,6.81704374 C32.9270071,-0.880623502 19.278418,-7.70491804 29.6361616,20.9451316 Z" id="Shape"></path>
            </g>
        </g>
        <g id="Group-2-Copy" transform="translate(139.997533, 181.257291)" stroke="#000000" stroke-linecap="round" stroke-width="4.4">
            <path d="M0,0.714969909 C7.25775323,10.3230083 16.8829971,8.66513115 24.2,-5.55111512e-15" id="Path-Copy-4"></path>
            <path d="M24.2,0.714969909 C31.4577532,10.3230083 41.0829971,8.66513115 48.4,-5.55111512e-15" id="Path-Copy-5"></path>
            <path d="M48.4,0.714969909 C55.6577532,10.3230083 65.2829971,8.66513115 72.6,-5.55111512e-15" id="Path-Copy-6"></path>
        </g>
        <g id="Group-2-Copy-2" transform="translate(93.221340, 201.738070)" stroke="#000000" stroke-linecap="round" stroke-width="4.4">
            <path d="M0,0.818140189 C8.30504827,11.8126202 19.3192165,9.91551106 27.6920642,-5.55111512e-15" id="Path-Copy-4"></path>
            <path d="M27.6920642,0.818140189 C35.9971124,11.8126202 47.0112806,9.91551106 55.3841283,-5.55111512e-15" id="Path-Copy-5"></path>
        </g>
        <g id="Group-2-Copy-3" transform="translate(148.605469, 201.738070)" stroke="#000000" stroke-linecap="round" stroke-width="4.4">
            <path d="M0,0.818140189 C8.30504827,11.8126202 19.3192165,9.91551106 27.6920642,-5.55111512e-15" id="Path-Copy-4"></path>
            <path d="M27.6920642,0.818140189 C35.9971124,11.8126202 47.0112806,9.91551106 55.3841283,-5.55111512e-15" id="Path-Copy-5"></path>
        </g>
    </g>
</svg>